<svg id="Layer_1" data-name="Layer 1" xmlns="http://www.w3.org/2000/svg" viewBox="0 0 128 126.5"><defs><style>.cls-1{fill:none;}</style></defs><path class="cls-1" d="M109.47,83.64c-.61,5-1.35,10-2.07,15-.54,3.77-1.06,7.55-1.68,11.3-.45,2.69-.51,2.7-3.36,2.7H63.05q-19.41,0-38.82,0c-1.28,0-3.35.55-3.26-1.52.07-1.87,2.06-1,3.27-1.23a32.62,32.62,0,0,0,3.44-.4c5.15-1.29,6.84-3.49,6.84-8.83q0-37.69,0-75.38c0-4.58-1.76-6.87-6.26-7.89-1.84-.42-3.78-.4-5.63-.78-.65-.13-1.19-.84-1.77-1.29A8.31,8.31,0,0,1,22.63,14a5.37,5.37,0,0,1,2-.07H99c.33,0,.66,0,1,0,2.38.06,2.59.24,2.65,2.54,0,1.58,0,3.15,0,4.73V39.56a6.86,6.86,0,0,1-.07,2c-.17.53-.72,1.37-1,1.35a2.25,2.25,0,0,1-1.69-1c-.64-1.7-1-3.5-1.5-5.25C96,28.54,90.76,23.37,82.48,21.51a38.07,38.07,0,0,0-7.13-.87c-4.89-.15-9.79-.09-14.68-.11-2.17,0-2.36.16-2.37,2.45,0,5.23,0,10.45,0,15.68,0,6.3,0,12.6,0,18.91,0,2.83.33,3.27,3.16,3,8-.77,11.75-3,14.82-10.77a62.11,62.11,0,0,0,2.14-8.39A10.74,10.74,0,0,1,79,39a2.41,2.41,0,0,1,1.6-1.09c.3,0,.88.77,1.07,1.3a5.16,5.16,0,0,1,.07,1.72V84.71a4.89,4.89,0,0,1-.08,1.72c-.21.52-.74,1.21-1.17,1.23a1.8,1.8,0,0,1-1.44-1c-.39-1.07-.34-2.3-.71-3.39-1.19-3.6-2.14-7.34-3.83-10.69-2.24-4.44-6.26-6.58-11.23-7.21s-5-.77-5,4.33c0,9.29,0,18.58,0,27.87a28,28,0,0,0,.46,5.18,5.88,5.88,0,0,0,4.38,4.61,4.72,4.72,0,0,0,1.2.31c8.47.45,16.91.74,24.93-2.85,8.18-3.66,13-10.26,16.24-18.29a29.74,29.74,0,0,0,1.19-3.52c.27-1.08.91-1.77,1.9-1.35A2.28,2.28,0,0,1,109.47,83.64Z"/></svg>