<svg id="Layer_1" data-name="Layer 1" xmlns="http://www.w3.org/2000/svg" viewBox="0 0 128 126.5"><defs><style>.cls-1{fill:#fff;}</style></defs><clipPath id="clip" d="M65.53,112.66H26.71c-.75,0-1.49,0-2.24,0-1.27,0-2-.47-2.09-1.87s.22-2.51,1.87-2.65c1.07-.09,2.15-.09,3.23-.13,5.7-.18,8.35-2.82,8.36-8.49q0-37.32,0-74.64c0-4.63-2.57-7.36-7.25-7.78-1.41-.12-2.82-.08-4.23-.17-1.58-.11-2-1.1-2-2.56s.86-2,2.23-2c.66,0,1.33,0,2,0h76.64c2.69,0,2.91.2,2.91,2.78q0,12.69,0,25.38c0,2.5-.65,3.05-2.86,2.91a2.08,2.08,0,0,1-2.06-1.77c-.76-2.62-1.46-5.27-2.44-7.81-2.72-7.05-8.17-10.77-15.35-12.38-6.56-1.48-13.21-.65-19.83-.88-1.44,0-1.88.72-1.85,2s0,2.82,0,4.23q0,14.31,0,28.61c0,3.29.28,3.59,3.58,3.23a13.7,13.7,0,0,0,12-9.44,100.45,100.45,0,0,0,2.89-10.77c.32-1.32.68-2.29,2.36-2.23,2.2.07,2.6.27,2.61,2.58q0,23.27,0,46.53c0,1.39-.06,2.7-2,2.82s-2.57-.36-3-2.47a43,43,0,0,0-3.79-12.3,14.28,14.28,0,0,0-12.08-8c-2.23-.22-2.65.13-2.65,2.39,0,10.28,0,20.57,0,30.85,0,4.84,2,7.22,6.73,7.61,7,.57,14.09.24,20.83-2.33,7.9-3,13.09-8.8,16.55-16.31.86-1.88,1.47-3.87,2.2-5.81.61-1.63,1.62-2.11,3.56-1.74,1.72.33,1.37,1.6,1.22,2.73-1.27,9.26-2.58,18.53-3.82,27.8-.21,1.57-1,2.08-2.48,2.07-5,0-10,0-14.93,0Zm-.09-.77h39.32c2.84,0,2.91,0,3.35-2.69.62-3.76,1.14-7.53,1.68-11.3.72-5,1.46-10,2.08-15A2.31,2.31,0,0,0,111,81c-1-.42-1.63.27-1.91,1.34a26.16,26.16,0,0,1-1.19,3.53c-3.23,8-8.05,14.63-16.24,18.29-8,3.58-16.46,3.29-24.93,2.85a4.83,4.83,0,0,1-1.2-.31,5.91,5.91,0,0,1-4.38-4.61,29,29,0,0,1-.45-5.18c0-9.29,0-18.58,0-27.87,0-5.11,0-5,5-4.33s9,2.76,11.23,7.2c1.69,3.36,2.64,7.1,3.84,10.7.36,1.09.32,2.31.7,3.39a1.84,1.84,0,0,0,1.45,1c.43,0,1-.72,1.16-1.23A4.66,4.66,0,0,0,84.1,84V40.17A5,5,0,0,0,84,38.44c-.19-.52-.76-1.34-1.06-1.3a2.44,2.44,0,0,0-1.6,1.1,10.26,10.26,0,0,0-.56,2.4A65,65,0,0,1,78.67,49c-3.08,7.75-6.82,10-14.82,10.77-2.84.28-3.16-.17-3.17-3q0-9.45,0-18.9c0-5.23,0-10.45,0-15.68,0-2.3.21-2.46,2.37-2.45,4.9,0,9.79-.05,14.68.1a38.83,38.83,0,0,1,7.13.88c8.28,1.85,13.5,7,15.87,15.13.51,1.75.87,3.55,1.5,5.24a2.24,2.24,0,0,0,1.69,1c.33,0,.88-.82,1-1.36a6.78,6.78,0,0,0,.07-2V20.39c0-1.57,0-3.15,0-4.72-.06-2.3-.26-2.48-2.64-2.54H27a5.59,5.59,0,0,0-2,.07,8.1,8.1,0,0,0-1.78,1.36c.59.45,1.12,1.16,1.77,1.29,1.86.37,3.8.35,5.64.77,4.5,1,6.25,3.32,6.25,7.89q0,37.7,0,75.39c0,5.34-1.69,7.53-6.84,8.82-1.11.28-2.3.24-3.44.41s-3.19-.64-3.27,1.22c-.08,2.08,2,1.52,3.27,1.52Q46,111.92,65.44,111.89Z"/><path class="cls-1" d="M65.44,111.89q-19.41,0-38.81,0c-1.29,0-3.35.56-3.27-1.52.08-1.86,2.07-1,3.27-1.22s2.33-.13,3.44-.41c5.15-1.29,6.84-3.48,6.84-8.82q0-37.69,0-75.39c0-4.57-1.75-6.86-6.25-7.89-1.84-.42-3.78-.4-5.64-.77-.65-.13-1.18-.84-1.77-1.29A8.1,8.1,0,0,1,25,13.19a5.59,5.59,0,0,1,2-.07h75.39c2.38.06,2.58.24,2.64,2.54,0,1.57,0,3.15,0,4.72V38.81a6.78,6.78,0,0,1-.07,2c-.16.54-.71,1.38-1,1.36a2.24,2.24,0,0,1-1.69-1c-.63-1.69-1-3.49-1.5-5.24-2.37-8.1-7.59-13.28-15.87-15.13a38.83,38.83,0,0,0-7.13-.88c-4.89-.15-9.78-.09-14.68-.1-2.16,0-2.36.15-2.37,2.45,0,5.23,0,10.45,0,15.68q0,9.45,0,18.9c0,2.83.33,3.28,3.17,3,8-.78,11.74-3,14.82-10.77a65,65,0,0,0,2.14-8.4,10.26,10.26,0,0,1,.56-2.4,2.44,2.44,0,0,1,1.6-1.1c.3,0,.87.78,1.06,1.3a5,5,0,0,1,.07,1.73V84A4.66,4.66,0,0,1,84,85.68c-.21.51-.73,1.2-1.16,1.23a1.84,1.84,0,0,1-1.45-1c-.38-1.08-.34-2.3-.7-3.39-1.2-3.6-2.15-7.34-3.84-10.7-2.23-4.44-6.26-6.58-11.23-7.2s-5-.78-5,4.33c0,9.29,0,18.58,0,27.87a29,29,0,0,0,.45,5.18,5.91,5.91,0,0,0,4.38,4.61,4.83,4.83,0,0,0,1.2.31c8.47.44,16.91.73,24.93-2.85,8.19-3.66,13-10.26,16.24-18.29a26.16,26.16,0,0,0,1.19-3.53c.28-1.07.91-1.76,1.91-1.34a2.31,2.31,0,0,1,.87,1.93c-.62,5-1.36,10-2.08,15-.54,3.77-1.06,7.54-1.68,11.3-.44,2.69-.51,2.69-3.35,2.69H65.44Z"/></svg>
